<?xml version="1.0" encoding="UTF-8" standalone="no"?>
<!DOCTYPE svg PUBLIC "-//W3C//DTD SVG 1.1//EN" "http://www.w3.org/Graphics/SVG/1.1/DTD/svg11.dtd">
<svg width="100%" height="100%" viewBox="0 0 652 497" version="1.1" xmlns="http://www.w3.org/2000/svg" xmlns:xlink="http://www.w3.org/1999/xlink" xml:space="preserve" xmlns:serif="http://www.serif.com/" style="fill-rule:evenodd;clip-rule:evenodd;stroke-linejoin:round;stroke-miterlimit:2;">
    <g transform="matrix(1,0,0,1,164.123,108.177)">
        <g transform="matrix(4.16667,0,0,4.16667,0,0)">
            <g transform="matrix(2.67554,0,0,2.67554,112.613,23.9017)">
                <path d="M0,7.25C-0.089,7.75 -0.181,8.328 -0.279,8.957C-0.812,12.322 -1.618,16.925 -3.589,18.382C-6.087,20.23 -15.458,23.38 -25.217,24.244C-26.799,24.384 -28.374,24.455 -29.899,24.455C-37.785,24.455 -42.806,22.553 -45.77,19.367C-49.341,15.529 -52.07,6.979 -53.12,2.25C-54.075,-2.051 -55.382,-7.941 -53.293,-10.437C-48.571,-16.079 -27.41,-17.53 -27.182,-17.544C-25.79,-17.632 -23.917,-17.682 -22.044,-17.682C-17.908,-17.682 -3.777,-17.396 -0.3,-13.724C2.054,-11.239 0.728,3.207 0,7.25M0.033,-14.38C-3.604,-18.222 -16.619,-18.637 -22.044,-18.637C-24.636,-18.637 -26.413,-18.549 -27.241,-18.498C-28.188,-18.439 -50.498,-17.005 -55.481,-11.051C-57.873,-8.194 -56.506,-2.039 -55.508,2.456C-55.213,3.785 -52.494,15.583 -47.925,20.496C-44.737,23.921 -38.167,25.887 -29.899,25.887C-28.346,25.887 -26.742,25.814 -25.133,25.671C-15.203,24.794 -5.967,21.54 -3.382,19.626C-1.098,17.938 -0.289,12.833 0.303,9.107C0.401,8.486 0.491,7.914 0.58,7.42C0.98,5.197 3.039,-11.207 0.033,-14.38" style="fill:rgb(29,29,27);fill-rule:nonzero;"/>
            </g>
        </g>
        <g transform="matrix(4.16667,0,0,4.16667,0,0)">
            <g transform="matrix(2.67554,0,0,2.67554,21.4294,17.9159)">
                <path d="M0,-6.46C-1.189,-6.46 -1.884,-6.307 -2.085,-6.002C-2.286,-5.697 -2.386,-4.639 -2.386,-2.83C-2.386,-1.49 -2.269,-0.684 -2.034,-0.41C-1.799,-0.137 -1.107,0 0.041,0C1.139,0 1.798,-0.154 2.017,-0.461C2.235,-0.769 2.345,-1.702 2.345,-3.261C2.345,-4.824 2.241,-5.748 2.034,-6.033C1.826,-6.317 1.148,-6.46 0,-6.46M0.137,-7.978C1.832,-7.978 2.923,-7.696 3.411,-7.133C3.899,-6.57 4.143,-5.312 4.143,-3.356C4.143,-1.219 3.897,0.127 3.408,0.684C2.918,1.24 1.732,1.518 -0.15,1.518C-1.846,1.518 -2.942,1.243 -3.438,0.694C-3.935,0.144 -4.184,-1.064 -4.184,-2.933C-4.184,-5.157 -3.94,-6.553 -3.452,-7.123C-2.964,-7.693 -1.768,-7.978 0.137,-7.978" style="fill:rgb(29,29,27);fill-rule:nonzero;"/>
            </g>
        </g>
        <g transform="matrix(4.16667,0,0,4.16667,0,0)">
            <g transform="matrix(2.67554,0,0,2.67554,44.4708,25.9468)">
                <path d="M0,-6.946C-0.597,-6.946 -0.987,-6.812 -1.169,-6.543C-1.351,-6.274 -1.442,-5.704 -1.442,-4.834C-1.442,-3.986 -1.344,-3.423 -1.148,-3.145C-0.953,-2.867 -0.554,-2.728 0.048,-2.728C0.659,-2.728 1.055,-2.861 1.237,-3.125C1.419,-3.389 1.511,-3.956 1.511,-4.827C1.511,-5.72 1.418,-6.297 1.234,-6.556C1.049,-6.816 0.638,-6.946 0,-6.946M-3.083,-8.101L-1.49,-8.101L-1.552,-7.131L-1.518,-7.124C-1.139,-7.83 -0.435,-8.183 0.595,-8.183C1.547,-8.183 2.202,-7.947 2.561,-7.476C2.918,-7.004 3.097,-6.144 3.097,-4.895C3.097,-3.592 2.919,-2.698 2.563,-2.216C2.208,-1.733 1.549,-1.491 0.588,-1.491C-0.437,-1.491 -1.107,-1.833 -1.422,-2.516L-1.449,-2.516L-1.449,1.237L-3.083,1.237L-3.083,-8.101Z" style="fill:rgb(29,29,27);fill-rule:nonzero;"/>
            </g>
        </g>
        <g transform="matrix(4.16667,0,0,4.16667,0,0)">
            <g transform="matrix(2.67554,0,0,2.67554,68.6211,18.0612)">
                <path d="M0,-5.154L0,-3.965L-2.516,-3.965L-2.516,-0.683C-2.516,-0.077 -2.285,0.226 -1.825,0.226C-1.319,0.226 -1.066,-0.141 -1.066,-0.875L-1.066,-1.134L0.267,-1.134L0.267,-0.806C0.267,-0.506 0.258,-0.248 0.239,-0.034C0.152,0.964 -0.59,1.463 -1.989,1.463C-3.384,1.463 -4.081,0.823 -4.081,-0.458L-4.081,-3.965L-4.929,-3.965L-4.929,-5.154L-4.081,-5.154L-4.081,-6.617L-2.516,-6.617L-2.516,-5.154L0,-5.154Z" style="fill:rgb(29,29,27);fill-rule:nonzero;"/>
            </g>
        </g>
        <g transform="matrix(4.16667,0,0,4.16667,0,0)">
            <g transform="matrix(2.67554,0,0,2.67554,-65.02,-103.383)">
                <path d="M53.007,46.772L51.442,46.772L51.442,40.237L53.007,40.237L53.007,46.772ZM53.007,38.746L51.442,38.746L51.442,37.44L53.007,37.44L53.007,38.746Z" style="fill:rgb(29,29,27);fill-rule:nonzero;"/>
            </g>
        </g>
        <g transform="matrix(4.16667,0,0,4.16667,0,0)">
            <g transform="matrix(2.67554,0,0,2.67554,85.5158,21.7564)">
                <path d="M0,-9.331L0,-3.992L0.403,-3.992L2.167,-6.535L3.985,-6.535L1.709,-3.459L4.45,0L2.509,0L0.383,-2.898L0,-2.898L0,0L-1.565,0L-1.565,-9.331L0,-9.331Z" style="fill:rgb(29,29,27);fill-rule:nonzero;"/>
            </g>
        </g>
        <g transform="matrix(4.16667,0,0,4.16667,0,0)">
            <g transform="matrix(2.67554,0,0,2.67554,18.0419,57.6303)">
                <path d="M0,-6.159L0,1.586L-1.771,1.586L-1.771,-6.159L-4.464,-6.159L-4.464,-7.745L2.789,-7.745L2.789,-6.159L0,-6.159Z" style="fill:rgb(29,29,27);fill-rule:nonzero;"/>
            </g>
        </g>
        <g transform="matrix(4.16667,0,0,4.16667,0,0)">
            <g transform="matrix(2.67554,0,0,2.67554,31.5895,52.2158)">
                <path d="M0,0.684C-0.884,0.684 -1.326,0.99 -1.326,1.6C-1.326,2.024 -1.235,2.302 -1.053,2.434C-0.871,2.566 -0.488,2.632 0.096,2.632C1.048,2.632 1.524,2.311 1.524,1.668C1.524,1.012 1.016,0.684 0,0.684M-1.046,-1.032L-2.646,-1.032C-2.646,-1.816 -2.463,-2.339 -2.099,-2.604C-1.734,-2.869 -1.012,-3.001 0.068,-3.001C1.244,-3.001 2.04,-2.838 2.454,-2.515C2.869,-2.192 3.076,-1.574 3.076,-0.663L3.076,3.61L1.511,3.61L1.586,2.714L1.545,2.707C1.244,3.359 0.549,3.685 -0.54,3.685C-2.122,3.685 -2.912,3.013 -2.912,1.668C-2.912,0.31 -2.103,-0.369 -0.485,-0.369C0.595,-0.369 1.251,-0.121 1.483,0.376L1.511,0.376L1.511,-0.683C1.511,-1.194 1.422,-1.532 1.244,-1.699C1.066,-1.865 0.702,-1.948 0.15,-1.948C-0.647,-1.948 -1.046,-1.642 -1.046,-1.032" style="fill:rgb(29,29,27);fill-rule:nonzero;"/>
            </g>
        </g>
        <g transform="matrix(4.16667,0,0,4.16667,0,0)">
            <g transform="matrix(2.67554,0,0,2.67554,54.9039,51.0646)">
                <path d="M0,1.545L1.559,1.545L1.559,1.771L1.463,2.762C1.271,3.664 0.337,4.115 -1.34,4.115C-2.57,4.115 -3.388,3.894 -3.794,3.448C-4.2,3.005 -4.402,2.11 -4.402,0.766C-4.402,-0.547 -4.2,-1.431 -3.794,-1.887C-3.388,-2.343 -2.6,-2.57 -1.429,-2.57C-0.299,-2.57 0.467,-2.405 0.868,-2.075C1.27,-1.744 1.47,-1.116 1.47,-0.191L-0.082,-0.191C-0.082,-0.952 -0.521,-1.333 -1.401,-1.333C-2.026,-1.333 -2.417,-1.212 -2.577,-0.971C-2.737,-0.729 -2.816,-0.137 -2.816,0.807C-2.816,1.718 -2.729,2.291 -2.553,2.526C-2.378,2.761 -1.948,2.878 -1.265,2.878C-0.727,2.878 -0.382,2.797 -0.229,2.636C-0.076,2.474 0,2.11 0,1.545" style="fill:rgb(29,29,27);fill-rule:nonzero;"/>
            </g>
        </g>
        <g transform="matrix(4.16667,0,0,4.16667,0,0)">
            <g transform="matrix(2.67554,0,0,2.67554,66.2591,61.874)">
                <path d="M0,-9.331L0,-3.992L0.403,-3.992L2.167,-6.535L3.985,-6.535L1.709,-3.459L4.45,0L2.509,0L0.383,-2.898L0,-2.898L0,0L-1.565,0L-1.565,-9.331L0,-9.331Z" style="fill:rgb(29,29,27);fill-rule:nonzero;"/>
            </g>
        </g>
    </g>
</svg>
